<svg xmlns:x="http://ns.adobe.com/Extensibility/1.0/" xmlns:i="http://ns.adobe.com/AdobeIllustrator/10.0/" xmlns:graph="http://ns.adobe.com/Graphs/1.0/" xmlns="http://www.w3.org/2000/svg" xmlns:xlink="http://www.w3.org/1999/xlink" version="1.0" x="0px" y="0px" viewBox="0 0 100 125" enable-background="new 0 0 100 100" xml:space="preserve"><metadata><sfw xmlns="http://ns.adobe.com/SaveForWeb/1.0/"><slices/><sliceSourceBounds y="-8142" x="-8141" width="16383" height="16383" bottomLeftOrigin="true"/></sfw></metadata><g><g><path d="M92.626,42.625c-1.937-4.923-5.674-8.798-10.523-10.91c-4.851-2.112-10.232-2.209-15.121-0.287l-5.947,2.337l-2.324-5.912    c-1.937-4.923-5.674-8.798-10.523-10.91c-4.851-2.112-10.233-2.21-15.156-0.274c-4.924,1.936-8.798,5.673-10.911,10.523    s-2.21,10.233-0.274,15.156l2.087-0.82c-1.717-4.366-1.631-9.139,0.243-13.44c1.873-4.301,5.309-7.615,9.675-9.332    c9.013-3.544,19.228,0.905,22.772,9.917l3.146,7.999l8.018-3.152c4.36-1.709,9.126-1.621,13.421,0.25    c4.301,1.873,7.615,5.309,9.332,9.675s1.631,9.14-0.242,13.44c-1.874,4.302-5.31,7.615-9.676,9.332L38.89,82.628l0.82,2.087    l41.731-16.41C91.604,64.309,96.622,52.789,92.626,42.625z"/><path d="M79.254,62.74L41,77.783l0.82,2.086l38.254-15.042c8.246-3.243,12.316-12.589,9.074-20.834    c-3.242-8.246-12.59-12.316-20.835-9.074l-9.39,3.692l-3.691-9.39c-3.242-8.246-12.59-12.315-20.834-9.073    c-3.995,1.571-7.138,4.603-8.852,8.538s-1.792,8.302-0.222,12.296l2.086-0.82c-1.352-3.437-1.284-7.195,0.191-10.581    c1.475-3.386,4.18-5.995,7.617-7.346c7.096-2.79,15.137,0.713,17.927,7.808l4.513,11.476l11.476-4.513    c7.097-2.791,15.138,0.713,17.928,7.808C89.852,51.908,86.349,59.95,79.254,62.74z"/><path d="M42.258,41.977c-1.21-0.607-2.505-0.915-3.85-0.915c-3.274,0-6.22,1.816-7.688,4.741l-2.85,5.678l-5.678-2.85    c-1.209-0.607-2.505-0.915-3.85-0.915c-3.274,0-6.22,1.816-7.688,4.742c-1.03,2.052-1.199,4.382-0.476,6.561    s2.25,3.946,4.302,4.977l21.041,10.561l10.561-21.041C48.209,49.278,46.493,44.103,42.258,41.977z M44.08,52.509l-9.555,19.036    l-19.037-9.556c-1.517-0.761-2.646-2.067-3.18-3.678c-0.534-1.61-0.409-3.332,0.352-4.849c1.085-2.162,3.263-3.505,5.684-3.505    c0.992,0,1.949,0.228,2.844,0.677l7.682,3.856l3.855-7.682c1.085-2.162,3.263-3.504,5.684-3.504c0.992,0,1.949,0.228,2.844,0.676    C44.382,45.552,45.651,49.377,44.08,52.509z"/><path d="M43.934,38.637c-1.735-0.871-3.594-1.313-5.523-1.313c-4.698,0-8.924,2.606-11.031,6.802l-1.173,2.338l-2.338-1.173    c-1.736-0.871-3.594-1.312-5.523-1.312c-4.698,0-8.924,2.606-11.03,6.802c-1.478,2.944-1.72,6.288-0.684,9.414    c1.037,3.127,3.229,5.662,6.173,7.141l24.38,12.236l12.237-24.38C52.474,49.113,50.011,41.688,43.934,38.637z M47.419,54.185    L36.188,76.562L13.812,65.329c-2.409-1.208-4.202-3.283-5.051-5.841c-0.848-2.559-0.649-5.294,0.56-7.702    c1.723-3.433,5.182-5.566,9.026-5.566c1.577,0,3.097,0.362,4.517,1.075l4.342,2.179l2.179-4.341    c1.724-3.433,5.182-5.566,9.027-5.566c1.577,0,3.097,0.362,4.518,1.075C47.901,43.137,49.916,49.212,47.419,54.185z"/></g></g><text x="0" y="115" fill="#000000" font-size="5px" font-weight="bold" font-family="'Helvetica Neue', Helvetica, Arial-Unicode, Arial, Sans-serif">Created by Ralf Schmitzer</text><text x="0" y="120" fill="#000000" font-size="5px" font-weight="bold" font-family="'Helvetica Neue', Helvetica, Arial-Unicode, Arial, Sans-serif">from the Noun Project</text></svg>
