<svg xmlns:x="http://ns.adobe.com/Extensibility/1.0/" xmlns:i="http://ns.adobe.com/AdobeIllustrator/10.0/" xmlns:graph="http://ns.adobe.com/Graphs/1.0/" xmlns="http://www.w3.org/2000/svg" xmlns:xlink="http://www.w3.org/1999/xlink" version="1.0" x="0px" y="0px" viewBox="0 0 100 125" enable-background="new 0 0 100 100" xml:space="preserve"><metadata><sfw xmlns="http://ns.adobe.com/SaveForWeb/1.0/"><slices/><sliceSourceBounds y="-8142" x="-8141" width="16383" height="16383" bottomLeftOrigin="true"/></sfw></metadata><g><g><path d="M27.449,58.195c-0.961,2.874,0.108,6.038,2.549,7.751l-6.97,20.845l-5.086-1.701c-0.2-0.066-0.408-0.101-0.619-0.101    c-0.839,0-1.583,0.535-1.849,1.332c-0.165,0.494-0.128,1.022,0.104,1.489c0.232,0.466,0.633,0.813,1.126,0.979l13.872,4.638    c0.2,0.067,0.408,0.102,0.618,0.102h0c0.84,0,1.583-0.536,1.85-1.333c0.165-0.493,0.128-1.022-0.104-1.488    c-0.233-0.467-0.633-0.813-1.127-0.979l-5.086-1.701l6.969-20.844c3.025,0.105,5.742-1.799,6.698-4.659l10.281-30.748    L37.73,27.448L27.449,58.195z M48.826,32.7l-9.817,29.36c-0.733,2.191-2.776,3.664-5.085,3.664c-0.216,0-0.435-0.014-0.649-0.04    l-0.593-0.073L24.877,88.95l6.474,2.165c0.123,0.041,0.223,0.128,0.281,0.244c0.058,0.117,0.067,0.249,0.026,0.373    c-0.067,0.199-0.252,0.333-0.462,0.333c-0.052,0-0.104-0.009-0.155-0.025L17.17,87.401c-0.124-0.041-0.224-0.128-0.282-0.244    s-0.067-0.249-0.026-0.372c0.066-0.199,0.252-0.334,0.462-0.334c0.052,0,0.104,0.009,0.155,0.025l6.473,2.165l7.804-23.339    l-0.518-0.299c-2.197-1.267-3.207-3.935-2.401-6.345l9.817-29.36L48.826,32.7z"/><path d="M84.544,87.299c-0.245-0.819-1.014-1.392-1.868-1.392c-0.189,0-0.377,0.027-0.56,0.082l-5.138,1.537l-6.3-21.057    c2.494-1.634,3.664-4.762,2.796-7.665l-9.292-31.061l-13.079,3.913l9.293,31.061c0.858,2.867,3.546,4.87,6.537,4.87    c0.003,0,0.006,0,0.009,0l6.3,21.056l-5.138,1.538c-0.499,0.148-0.91,0.483-1.158,0.942c-0.247,0.458-0.301,0.985-0.151,1.484    C67.04,93.428,67.808,94,68.662,94c0.189,0,0.378-0.027,0.56-0.082l14.013-4.192c0.499-0.148,0.91-0.483,1.157-0.942    C84.639,88.325,84.693,87.798,84.544,87.299z M83.104,88.089c-0.062,0.115-0.165,0.198-0.289,0.235l-14.013,4.192    c-0.257,0.077-0.532-0.077-0.606-0.327c-0.038-0.125-0.024-0.257,0.038-0.371c0.062-0.115,0.164-0.198,0.289-0.235l6.539-1.957    L68.009,66.05l-0.595,0.054c-0.159,0.015-0.321,0.021-0.48,0.021c-2.35,0-4.462-1.573-5.136-3.826l-8.873-29.66L63.2,29.564    l8.873,29.659c0.729,2.435-0.366,5.069-2.604,6.265l-0.526,0.282l7.053,23.576l6.54-1.956c0.256-0.076,0.531,0.077,0.606,0.327    C83.18,87.843,83.166,87.975,83.104,88.089z"/><path d="M51.474,24.404c0,2.083,1.694,3.778,3.778,3.778c2.083,0,3.778-1.695,3.778-3.778s-1.695-3.778-3.778-3.778    C53.168,20.626,51.474,22.321,51.474,24.404z M57.567,24.404c0,1.277-1.039,2.316-2.315,2.316c-1.277,0-2.316-1.039-2.316-2.316    s1.039-2.315,2.316-2.315C56.528,22.089,57.567,23.127,57.567,24.404z"/><path d="M50.376,20.26c1.412,0,2.559-1.148,2.559-2.56c0-1.411-1.147-2.56-2.559-2.56c-1.411,0-2.56,1.148-2.56,2.56    C47.817,19.112,48.965,20.26,50.376,20.26z M50.376,16.604c0.605,0,1.097,0.492,1.097,1.097s-0.492,1.097-1.097,1.097    s-1.097-0.492-1.097-1.097S49.771,16.604,50.376,16.604z"/><path d="M54.643,14.775c1.075,0,1.95-0.875,1.95-1.95c0-1.076-0.875-1.95-1.95-1.95s-1.95,0.875-1.95,1.95    C52.692,13.901,53.567,14.775,54.643,14.775z M54.643,12.338c0.269,0,0.487,0.219,0.487,0.488c0,0.269-0.219,0.487-0.487,0.487    c-0.27,0-0.488-0.219-0.488-0.487C54.154,12.557,54.373,12.338,54.643,12.338z"/><path d="M44.892,28.183c2.419,0,4.388-1.968,4.388-4.388s-1.969-4.388-4.388-4.388c-2.419,0-4.388,1.968-4.388,4.388    S42.473,28.183,44.892,28.183z M44.892,20.87c1.613,0,2.925,1.312,2.925,2.925s-1.312,2.925-2.925,2.925    c-1.613,0-2.925-1.312-2.925-2.925S43.279,20.87,44.892,20.87z"/><path d="M50.986,9.9c1.076,0,1.95-0.875,1.95-1.95S52.062,6,50.986,6c-1.075,0-1.95,0.875-1.95,1.95S49.911,9.9,50.986,9.9z     M50.986,7.462c0.269,0,0.488,0.219,0.488,0.488s-0.219,0.487-0.488,0.487c-0.269,0-0.487-0.218-0.487-0.487    S50.717,7.462,50.986,7.462z"/></g></g><text x="0" y="115" fill="#000000" font-size="5px" font-weight="bold" font-family="'Helvetica Neue', Helvetica, Arial-Unicode, Arial, Sans-serif">Created by Ralf Schmitzer</text><text x="0" y="120" fill="#000000" font-size="5px" font-weight="bold" font-family="'Helvetica Neue', Helvetica, Arial-Unicode, Arial, Sans-serif">from the Noun Project</text></svg>
