<svg xmlns:x="http://ns.adobe.com/Extensibility/1.0/" xmlns:i="http://ns.adobe.com/AdobeIllustrator/10.0/" xmlns:graph="http://ns.adobe.com/Graphs/1.0/" xmlns="http://www.w3.org/2000/svg" xmlns:xlink="http://www.w3.org/1999/xlink" version="1.0" x="0px" y="0px" viewBox="0 0 100 125" enable-background="new 0 0 100 100" xml:space="preserve"><metadata><sfw xmlns="http://ns.adobe.com/SaveForWeb/1.0/"><slices/><sliceSourceBounds y="-8142" x="-8141" width="16383" height="16383" bottomLeftOrigin="true"/></sfw></metadata><g><g><path d="M38.462,42.923c-14.082,0-25.539,11.457-25.539,25.539S24.38,94,38.462,94S64,82.544,64,68.462    S52.544,42.923,38.462,42.923z M38.462,92.154c-13.064,0-23.692-10.629-23.692-23.692c0-13.064,10.628-23.693,23.692-23.693    c13.063,0,23.692,10.628,23.692,23.693C62.154,81.525,51.525,92.154,38.462,92.154z"/><path d="M38.462,46C26.076,46,16,56.076,16,68.462c0,12.385,10.076,22.461,22.462,22.461c12.385,0,22.461-10.076,22.461-22.461    C60.923,56.076,50.847,46,38.462,46z M38.462,89.077c-11.368,0-20.616-9.248-20.616-20.615c0-11.368,9.248-20.616,20.616-20.616    c11.367,0,20.615,9.248,20.615,20.616C59.077,79.829,49.829,89.077,38.462,89.077z"/><path d="M56.828,19.029c3.09-0.548,6.331-0.548,9.421,0l0.721,0.128l3.355-7.829L64.998,6h-6.919l-5.327,5.328l3.355,7.829    L56.828,19.029z M58.844,7.846h5.39l2.769,2.769H56.074L58.844,7.846z M67.831,12.461l-1.984,4.63    c-1.42-0.214-2.866-0.323-4.309-0.323s-2.888,0.109-4.308,0.323l-1.984-4.63H67.831z"/><path d="M61.538,19.846c-12.265,0-22.815,8.737-25.088,20.776l1.814,0.342c2.107-11.167,11.896-19.272,23.273-19.272    c13.064,0,23.692,10.628,23.692,23.692c0,11.056-7.653,20.61-18.331,23.077H65.23c0,0.321-0.007,0.66-0.022,1.068l-0.045,1.157    l1.139-0.215C78.34,68.2,87.077,57.649,87.077,45.385C87.077,31.303,75.62,19.846,61.538,19.846z"/><path d="M65.886,65.537l0.388,1.805C76.545,65.136,84,55.901,84,45.385c0-12.386-10.076-22.462-22.462-22.462    c-10.517,0-19.751,7.455-21.957,17.727l1.806,0.388c2.023-9.426,10.499-16.268,20.151-16.268c11.368,0,20.616,9.248,20.616,20.616    C82.154,55.037,75.312,63.513,65.886,65.537z"/></g></g><text x="0" y="115" fill="#000000" font-size="5px" font-weight="bold" font-family="'Helvetica Neue', Helvetica, Arial-Unicode, Arial, Sans-serif">Created by Ralf Schmitzer</text><text x="0" y="120" fill="#000000" font-size="5px" font-weight="bold" font-family="'Helvetica Neue', Helvetica, Arial-Unicode, Arial, Sans-serif">from the Noun Project</text></svg>
